<?xml version="1.0" encoding="UTF-8" standalone="no"?>
<!DOCTYPE svg PUBLIC "-//W3C//DTD SVG 1.1//EN" "http://www.w3.org/Graphics/SVG/1.1/DTD/svg11.dtd">
<svg width="100%" height="100%" viewBox="0 0 2732 1800" version="1.1" xmlns="http://www.w3.org/2000/svg" xmlns:xlink="http://www.w3.org/1999/xlink" xml:space="preserve" xmlns:serif="http://www.serif.com/" style="fill-rule:evenodd;clip-rule:evenodd;stroke-linejoin:round;stroke-miterlimit:2;">
    <g transform="matrix(1.01555,0,0,0.368054,-56.3222,-66.5425)">
        <rect x="-326.313" y="-437.717" width="3251.81" height="6307.58" style="fill:rgb(24,24,24);"/>
    </g>
    <g transform="matrix(1,0,0,0.878906,2.84217e-14,0)">
        <g id="Layer1">
            <g id="Layer3">
                <g transform="matrix(1.7775,0,0,1.66136,-517.029,-810.704)">
                    <path d="M548.75,609.204C548.75,592.031 537.297,578.088 523.189,578.088L368.467,578.088C354.36,578.088 342.906,592.031 342.906,609.204C342.906,626.377 354.36,640.32 368.467,640.32L523.189,640.32C537.297,640.32 548.75,626.377 548.75,609.204Z" style="fill:rgb(216,216,216);fill-opacity:0.24;"/>
                </g>
                <g transform="matrix(1.7775,0,0,1.66136,-517.029,-585.741)">
                    <path d="M548.75,609.204C548.75,592.031 537.297,578.088 523.189,578.088L368.467,578.088C354.36,578.088 342.906,592.031 342.906,609.204C342.906,626.377 354.36,640.32 368.467,640.32L523.189,640.32C537.297,640.32 548.75,626.377 548.75,609.204Z" style="fill:rgb(216,216,216);fill-opacity:0.24;"/>
                </g>
                <g transform="matrix(1.7775,0,0,1.66136,-517.029,-182.618)">
                    <path d="M548.75,609.204C548.75,592.031 537.297,578.088 523.189,578.088L368.467,578.088C354.36,578.088 342.906,592.031 342.906,609.204C342.906,626.377 354.36,640.32 368.467,640.32L523.189,640.32C537.297,640.32 548.75,626.377 548.75,609.204Z" style="fill:rgb(216,216,216);fill-opacity:0.24;"/>
                </g>
                <g transform="matrix(1.7775,0,0,1.66136,-517.029,27.4378)">
                    <path d="M548.75,609.204C548.75,592.031 537.297,578.088 523.189,578.088L368.467,578.088C354.36,578.088 342.906,592.031 342.906,609.204C342.906,626.377 354.36,640.32 368.467,640.32L523.189,640.32C537.297,640.32 548.75,626.377 548.75,609.204Z" style="fill:rgb(216,216,216);fill-opacity:0.24;"/>
                </g>
                <g transform="matrix(1.7775,0,0,1.66136,-517.029,246.853)">
                    <path d="M548.75,609.204C548.75,592.031 537.297,578.088 523.189,578.088L368.467,578.088C354.36,578.088 342.906,592.031 342.906,609.204C342.906,626.377 354.36,640.32 368.467,640.32L523.189,640.32C537.297,640.32 548.75,626.377 548.75,609.204Z" style="fill:rgb(216,216,216);fill-opacity:0.24;"/>
                </g>
                <g transform="matrix(3.58634,0,0,1.66136,-4.12771,330.803)">
                    <path d="M548.75,609.204C548.75,592.031 543.073,578.088 536.081,578.088L355.575,578.088C348.583,578.088 342.906,592.031 342.906,609.204C342.906,626.377 348.583,640.32 355.575,640.32L536.081,640.32C543.073,640.32 548.75,626.377 548.75,609.204Z" style="fill:rgb(216,216,216);fill-opacity:0.24;"/>
                </g>
                <g transform="matrix(1.7775,0,0,1.66136,-517.029,469.388)">
                    <path d="M548.75,609.204C548.75,592.031 537.297,578.088 523.189,578.088L368.467,578.088C354.36,578.088 342.906,592.031 342.906,609.204C342.906,626.377 354.36,640.32 368.467,640.32L523.189,640.32C537.297,640.32 548.75,626.377 548.75,609.204Z" style="fill:rgb(216,216,216);fill-opacity:0.24;"/>
                </g>
                <g transform="matrix(1.7775,0,0,1.66136,-517.029,677.364)">
                    <path d="M548.75,609.204C548.75,592.031 537.297,578.088 523.189,578.088L368.467,578.088C354.36,578.088 342.906,592.031 342.906,609.204C342.906,626.377 354.36,640.32 368.467,640.32L523.189,640.32C537.297,640.32 548.75,626.377 548.75,609.204Z" style="fill:rgb(216,216,216);fill-opacity:0.24;"/>
                </g>
                <g transform="matrix(0.209191,0,0,0.238013,1038.62,1243.72)">
                    <text x="1536.2px" y="506.097px" style="font-family:'DINAlternate-Bold', 'DIN Alternate', sans-serif;font-weight:700;font-size:258.986px;fill:rgb(123,123,123);">Acceler<tspan x="2345.91px 2475.41px " y="506.097px 506.097px ">at</tspan>ed (@270V)</text>
                </g>
                <g transform="matrix(1.92135,0,0,2.08975,-725.392,-18.4955)">
                    <path d="M966.892,439.518C966.892,393.536 836.368,296.618 836.368,296.618C815.077,296.618 797.792,314.7 797.792,336.972L797.792,532.157C797.792,554.429 815.077,572.511 836.368,572.511C836.368,572.511 966.892,485.5 966.892,439.518Z" style="fill:rgb(216,216,216);fill-opacity:0.24;"/>
                </g>
                <g transform="matrix(-1.92112,0.0338457,-0.0284365,-2.0895,3122.59,1780.48)">
                    <path d="M965.87,471.108C965.87,450.475 972.89,427.869 944.14,393.069C908.82,350.317 1009.13,315.894 996.895,303.439C984.661,290.983 872.299,320.654 847.518,342.767C819.393,367.865 782.054,428.512 793.309,457.356C802.41,480.679 820.467,482.071 826.017,495.718C832.633,511.983 785.802,584.158 806.717,582.427C827.633,580.696 965.87,517.09 965.87,471.108Z" style="fill:rgb(216,216,216);fill-opacity:0.24;"/>
                </g>
                <g transform="matrix(1.80705e-16,-3.35774,1.58724,1.10581e-16,1197.04,3870.7)">
                    <path d="M966.892,439.518C966.892,393.536 836.368,296.618 836.368,296.618C815.077,296.618 797.792,314.7 797.792,336.972L797.792,532.157C797.792,554.429 815.077,572.511 836.368,572.511C836.368,572.511 966.892,485.5 966.892,439.518Z" style="fill:rgb(216,216,216);fill-opacity:0.24;"/>
                </g>
                <g transform="matrix(2.15052,-7.23263e-32,-4.24332e-32,1.64109,530.207,107.575)">
                    <path d="M966.892,439.518C966.892,393.536 836.368,296.618 836.368,296.618C815.077,296.618 797.792,314.7 797.792,336.972L792.314,635.425C791.012,662.222 829.198,689.462 842.906,651.831C861.341,601.226 842.968,566.395 863.874,529.247C884.779,492.1 966.892,485.5 966.892,439.518Z" style="fill:rgb(216,216,216);fill-opacity:0.24;"/>
                </g>
            </g>
        </g>
    </g>
</svg>
